# Blender v2.79 (sub 0) OBJ File: 'Power 6560.blend'
# www.blender.org
mtllib Power 6560.mtl
o unit_Cube.001
v 0.180000 -0.067500 0.265000
v 0.180000 0.067500 0.265000
v 0.180000 -0.067500 0.240000
v 0.180000 0.067500 0.240000
v 0.200000 -0.067500 0.265000
v 0.200000 0.067500 0.265000
v 0.200000 -0.067500 0.240000
v 0.200000 0.067500 0.240000
v 0.180000 -0.067500 -0.240000
v 0.180000 0.067500 -0.240000
v 0.180000 -0.067500 -0.265000
v 0.180000 0.067500 -0.265000
v 0.200000 -0.067500 -0.240000
v 0.200000 0.067500 -0.240000
v 0.200000 -0.067500 -0.265000
v 0.200000 0.067500 -0.265000
v -0.200000 0.067500 -0.240000
v -0.200000 0.067500 0.240000
v -0.200000 -0.067500 0.240000
v -0.200000 -0.067500 -0.240000
v 0.180000 -0.060750 -0.240000
v 0.180952 -0.061071 -0.240000
v 0.180952 0.061071 0.240000
v 0.180000 0.060750 0.240000
v 0.200000 -0.000000 -0.265000
v 0.200000 -0.067500 -0.252500
v 0.200000 0.067500 -0.264820
v 0.200000 -0.000000 -0.240000
v 0.200000 -0.000000 -0.262552
v 0.200000 0.067500 -0.264944
v 0.200000 0.033750 -0.240000
v 0.200000 -0.000000 -0.251276
v 0.200000 0.033750 -0.264820
v 0.200000 0.033750 -0.264944
v 0.200000 0.000000 0.240000
v 0.200000 -0.067500 0.240250
v 0.200000 0.067500 0.252500
v 0.200000 0.000000 0.265000
v 0.200000 0.000000 0.240250
v 0.200000 -0.033750 0.265000
v 0.200000 -0.067500 0.247243
v 0.200000 0.000000 0.247243
v 0.200000 -0.033750 0.240250
v 0.200000 -0.033750 0.247243
v 0.200000 -0.050625 0.265000
v 0.200000 -0.067500 0.256121
v 0.200000 -0.033750 0.256121
v 0.200000 -0.050625 0.247243
v 0.200000 -0.050625 0.256121
v 0.200000 -0.059062 0.265000
v 0.200000 -0.033750 0.260561
v 0.200000 -0.042187 0.265000
v 0.200000 -0.067500 0.260561
v 0.200000 -0.050625 0.260561
v 0.200000 -0.059062 0.256121
v 0.200000 -0.042187 0.256121
v 0.200000 -0.059062 0.260561
v 0.200000 -0.042187 0.260561
vt 0.732410 0.992072
vt 0.732410 0.961037
vt 0.750395 0.961037
vt 0.750395 0.962589
vt 0.750395 0.992072
vt 0.761453 0.992072
vt 0.761453 0.962589
vt 0.790230 0.992072
vt 0.972867 0.978072
vt 0.989054 0.978072
vt 0.989054 0.986693
vt 0.972867 0.986693
vt 0.972867 0.982382
vt 0.800492 0.992072
vt 0.800492 0.990132
vt 0.800492 0.988192
vt 0.800492 0.986253
vt 0.800492 0.984313
vt 0.800492 0.976554
vt 0.800492 0.961037
vt 0.829269 0.961037
vt 0.829269 0.992072
vt 0.988176 0.918867
vt 0.988176 0.946453
vt 0.979183 0.946453
vt 0.974686 0.946453
vt 0.972438 0.946453
vt 0.971314 0.946453
vt 0.970190 0.946453
vt 0.970190 0.918867
vt 0.991539 0.804312
vt 0.991539 0.831898
vt 0.973553 0.831898
vt 0.973553 0.804312
vt 0.982546 0.804312
vt 0.706913 0.951766
vt 0.706913 0.950215
vt 0.706913 0.920732
vt 0.724899 0.920732
vt 0.724899 0.951766
vt 0.707830 0.871156
vt 0.707830 0.840122
vt 0.736607 0.840122
vt 0.736607 0.855639
vt 0.736607 0.871156
vt 0.681379 0.955275
vt 0.681522 0.981992
vt 0.654620 0.981670
vt 0.654055 0.955526
vt 0.734467 0.947116
vt 0.761873 0.945638
vt 0.763244 0.945564
vt 0.763244 0.947116
vt 0.723475 0.802160
vt 0.723475 0.829746
vt 0.714482 0.829746
vt 0.705489 0.829746
vt 0.705489 0.802160
vt 0.717568 0.966309
vt 0.717568 0.993896
vt 0.699582 0.993896
vt 0.699582 0.966309
vt 0.704078 0.966309
vt 0.708575 0.966309
vt 0.734467 0.916081
vt 0.734467 0.931599
vt 0.734467 0.923840
vt 0.762824 0.962515
vt 0.790230 0.961037
vt 0.790230 0.976554
vt 0.761453 0.961037
vt 0.705219 0.882847
vt 0.721406 0.882847
vt 0.721406 0.887157
vt 0.721406 0.891467
vt 0.705219 0.891467
vt 0.705219 0.874226
vt 0.721406 0.874226
vt 0.737593 0.874226
vt 0.737593 0.882847
vt 0.729500 0.882847
vt 0.729500 0.887157
vt 0.729500 0.891467
vt 0.737593 0.887157
vt 0.964774 0.982382
vt 0.964774 0.986693
vt 0.964774 0.985615
vt 0.964774 0.984537
vt 0.956680 0.969451
vt 0.972867 0.969451
vt 0.964774 0.978072
vt 0.956680 0.978072
vt 0.989054 0.969451
vt 0.766517 0.911188
vt 0.766559 0.918372
vt 0.763234 0.918413
vt 0.763188 0.911251
vt 0.960727 0.982382
vt 0.956680 0.982382
vt 0.766432 0.896819
vt 0.766474 0.904004
vt 0.763142 0.904090
vt 0.763095 0.896928
vt 0.027896 0.753988
vt 0.027955 0.768491
vt 0.019214 0.768663
vt 0.019176 0.761456
vt 0.019138 0.754250
vt 0.028013 0.782995
vt 0.019289 0.783077
vt 0.019251 0.775870
vt 0.766390 0.889635
vt 0.763049 0.889766
vt 0.010712 0.761565
vt 0.010670 0.754381
vt 0.010754 0.768749
vt 0.010796 0.775933
vt 0.010838 0.783117
vt 0.367314 0.007018
vt 0.367314 0.034604
vt 0.367314 0.454701
vt 0.021990 0.454701
vt 0.021990 0.034604
vt 0.021990 0.007018
vt 0.635388 0.520711
vt 0.639473 0.738864
vt 0.045245 0.740770
vt 0.046082 0.527539
vt 0.721462 0.007018
vt 0.721462 0.425162
vt 0.721462 0.452748
vt 0.376138 0.452748
vt 0.376138 0.425162
vt 0.376138 0.007018
vt 0.650403 0.752038
vt 0.650790 0.872861
vt 0.650984 0.933273
vt 0.651177 0.993685
vt 0.040436 0.993439
vt 0.040673 0.873240
vt 0.040911 0.753042
vt 0.861022 0.776980
vt 0.729436 0.776980
vt 0.729436 0.038975
vt 0.859404 0.038975
vt 0.861022 0.038975
vt 0.729436 0.011388
vt 0.762333 0.011388
vt 0.795229 0.011388
vt 0.861022 0.011388
vt 0.990819 0.750944
vt 0.868602 0.750944
vt 0.866983 0.750944
vt 0.866983 0.012939
vt 0.990819 0.012939
vt 0.990819 0.778530
vt 0.928901 0.778530
vt 0.866983 0.778530
vn -1.0000 0.0000 0.0000
vn 0.0000 0.0000 -1.0000
vn 1.0000 -0.0000 0.0000
vn 0.0000 0.0000 1.0000
vn 0.0000 -1.0000 0.0000
vn 0.0000 1.0000 0.0000
usemtl Material
s off
f 1/1/1 2/2/1 4/3/1 24/4/1 3/5/1
f 3/6/2 24/7/2 7/8/2
f 39/9/3 37/10/3 6/11/3 38/12/3 42/13/3
f 5/14/4 50/15/4 45/16/4 52/17/4 40/18/4 38/19/4 6/20/4 2/21/4 1/22/4
f 3/23/5 7/24/5 36/25/5 41/26/5 46/27/5 53/28/5 5/29/5 1/30/5
f 8/31/6 4/32/6 2/33/6 6/34/6 37/35/6
f 9/36/1 21/37/1 10/38/1 12/39/1 11/40/1
f 11/41/2 12/42/2 16/43/2 25/44/2 15/45/2
f 34/46/3 30/47/3 14/48/3 31/49/3
f 13/50/4 22/51/4 21/52/4 9/53/4
f 11/54/5 15/55/5 26/56/5 13/57/5 9/58/5
f 16/59/6 12/60/6 10/61/6 14/62/6 30/63/6 27/64/6
f 14/65/4 21/52/4 22/51/4 13/50/4 28/66/4 31/67/4
f 7/8/2 24/7/2 23/68/2 8/69/2 35/70/2
f 24/7/2 4/71/2 8/69/2 23/68/2
f 26/72/3 29/73/3 32/74/3 28/75/3 13/76/3
f 15/77/3 25/78/3 29/73/3 26/72/3
f 25/78/3 16/79/3 27/80/3 33/81/3 29/73/3
f 32/74/3 34/82/3 31/83/3 28/75/3
f 29/73/3 33/81/3 34/82/3 32/74/3
f 33/81/1 27/80/1 30/84/1 34/82/1
f 44/85/3 42/13/3 38/12/3 40/86/3 51/87/3 47/88/3
f 7/89/3 35/90/3 39/9/3 43/91/3 36/92/3
f 35/90/3 8/93/3 37/10/3 39/9/3
f 58/94/3 51/95/3 40/96/3 52/97/3
f 36/92/3 43/91/3 44/85/3 48/98/3 41/99/3
f 43/91/3 39/9/3 42/13/3 44/85/3
f 57/100/3 54/101/3 45/102/3 50/103/3
f 41/104/3 48/105/3 49/106/3 55/107/3 46/108/3
f 48/105/3 44/109/3 47/110/3 56/111/3 49/106/3
f 53/112/3 57/100/3 50/103/3 5/113/3
f 46/108/3 55/107/3 57/114/3 53/115/3
f 55/107/3 49/106/3 54/116/3 57/114/3
f 54/101/3 58/94/3 52/97/3 45/102/3
f 49/106/3 56/111/3 58/117/3 54/116/3
f 56/111/3 47/110/3 51/118/3 58/117/3
s 1
f 14/119/6 10/120/6 17/121/6 18/122/6 4/123/6 8/124/6
f 19/125/1 18/126/1 17/127/1 20/128/1
f 20/129/5 9/130/5 13/131/5 7/132/5 3/133/5 19/134/5
f 13/135/3 28/136/3 31/137/3 14/138/3 8/139/3 35/140/3 7/141/3
f 20/142/2 17/143/2 10/144/2 21/145/2 9/146/2
f 9/146/2 21/145/2 14/147/2 31/148/2 28/149/2 13/150/2
f 14/147/2 21/145/2 10/144/2
f 3/151/4 24/152/4 4/153/4 18/154/4 19/155/4
f 4/153/4 24/152/4 7/156/4 35/157/4 8/158/4
