# Blender v2.79 (sub 0) OBJ File: 'PowerEdgeR530.blend'
# www.blender.org
mtllib PowerEdgeR530.mtl
o unit_Cube.001
v 0.195000 0.000000 -0.252500
v 0.195000 0.000000 -0.246250
v 0.195000 0.022500 -0.252500
v 0.195000 0.000000 -0.258750
v 0.195000 -0.022500 -0.252500
v 0.195000 -0.022500 -0.246250
v 0.195000 0.022500 -0.246250
v 0.195000 0.022500 -0.258750
v 0.195000 -0.022500 -0.258750
v 0.197500 0.000000 -0.265000
v 0.196250 0.000000 -0.265000
v 0.197500 0.027501 -0.265000
v 0.198750 0.000000 -0.265000
v 0.197500 -0.029047 -0.265000
v 0.196250 -0.029047 -0.265000
v 0.196250 0.027501 -0.265000
v 0.198750 0.027501 -0.265000
v 0.198750 -0.029047 -0.265000
v 0.200000 0.000000 -0.252500
v 0.200000 0.000000 -0.258750
v 0.200000 0.022500 -0.252500
v 0.200000 0.000000 -0.246250
v 0.200000 -0.022500 -0.252500
v 0.200000 -0.022500 -0.258750
v 0.200000 0.022500 -0.258750
v 0.200000 0.022500 -0.246250
v 0.200000 -0.022500 -0.246250
v 0.200000 0.045000 -0.240000
v 0.197500 0.022500 -0.240000
v 0.198750 -0.022500 -0.240000
v 0.200000 0.045000 0.240000
v 0.196250 0.022500 -0.240000
v 0.196250 -0.022500 -0.240000
v 0.197500 -0.045000 -0.252500
v 0.197500 -0.045000 -0.258750
v 0.198750 -0.045000 -0.252500
v 0.197500 -0.045000 -0.246250
v 0.196250 -0.045000 -0.252500
v 0.196250 -0.045000 -0.258750
v 0.198750 -0.045000 -0.258750
v 0.198750 -0.045000 -0.246250
v 0.196250 -0.045000 -0.246250
v 0.197500 0.045000 -0.252500
v 0.197500 0.045000 -0.258750
v 0.196250 0.045000 -0.252500
v 0.197500 0.045000 -0.246250
v 0.198750 0.045000 -0.252500
v 0.198750 0.045000 -0.258750
v 0.196250 0.045000 -0.258750
v 0.196250 0.045000 -0.246250
v 0.198750 0.045000 -0.246250
v 0.195000 -0.045000 -0.258750
v 0.195000 -0.045000 -0.252500
v 0.195000 -0.045000 -0.246250
v 0.195000 -0.022500 -0.240000
v 0.195000 0.000000 -0.240000
v 0.195000 0.022500 -0.240000
v 0.195000 0.045000 -0.246250
v 0.195000 0.045000 -0.252500
v 0.195000 0.045000 -0.258750
v 0.195000 0.027501 -0.265000
v 0.195000 0.000000 -0.265000
v 0.195000 -0.029047 -0.265000
v 0.198750 -0.038476 -0.262965
v 0.197500 -0.038476 -0.262965
v 0.196250 -0.038476 -0.262965
v 0.196250 0.039750 -0.263527
v 0.197500 0.039750 -0.263527
v 0.198750 0.039750 -0.263527
v 0.200000 0.027501 -0.265000
v 0.200000 0.000000 -0.265000
v 0.200000 -0.029047 -0.265000
v 0.200000 -0.045000 -0.246250
v 0.200000 -0.045000 -0.252500
v 0.200000 -0.045000 -0.258750
v 0.200000 0.045000 -0.258750
v 0.200000 0.045000 -0.252500
v 0.200000 0.045000 -0.246250
v 0.200000 -0.045000 -0.240000
v 0.197500 -0.045000 -0.240000
v 0.198750 -0.045000 -0.240000
v 0.198750 0.045000 -0.240000
v 0.196250 0.045000 -0.240000
v 0.195000 -0.045000 -0.240000
v 0.195000 0.045000 -0.240000
v 0.195000 -0.038476 -0.262965
v 0.195000 0.039750 -0.263527
v 0.200000 -0.038476 -0.262965
v 0.200000 0.039750 -0.263527
v 0.195000 0.000000 0.252500
v 0.195000 0.000000 0.246250
v 0.195000 -0.022500 0.252500
v 0.195000 -0.000000 0.258750
v 0.195000 0.022500 0.252500
v 0.195000 0.022500 0.246250
v 0.195000 -0.022500 0.246250
v 0.195000 -0.022500 0.258750
v 0.195000 0.022500 0.258750
v 0.197500 -0.000000 0.265000
v 0.196250 -0.000000 0.265000
v 0.197500 -0.027501 0.265000
v 0.198750 -0.000000 0.265000
v 0.197500 0.029047 0.265000
v 0.196250 0.029047 0.265000
v 0.196250 -0.027501 0.265000
v 0.198750 -0.027501 0.265000
v 0.198750 0.029047 0.265000
v 0.200000 0.000000 0.252500
v 0.200000 -0.000000 0.258750
v 0.200000 -0.022500 0.252500
v 0.200000 0.000000 0.246250
v 0.200000 0.022500 0.252500
v 0.200000 0.022500 0.258750
v 0.200000 -0.022500 0.258750
v 0.200000 -0.022500 0.246250
v 0.200000 0.022500 0.246250
v 0.198750 0.000000 0.240000
v 0.197500 -0.022500 0.240000
v 0.198750 0.022500 0.240000
v 0.198750 -0.022500 0.240000
v 0.196250 -0.022500 0.240000
v 0.196250 0.022500 0.240000
v 0.197500 0.045000 0.252500
v 0.197500 0.045000 0.258750
v 0.198750 0.045000 0.252500
v 0.197500 0.045000 0.246250
v 0.196250 0.045000 0.252500
v 0.196250 0.045000 0.258750
v 0.198750 0.045000 0.258750
v 0.198750 0.045000 0.246250
v 0.196250 0.045000 0.246250
v 0.197500 -0.045000 0.252500
v 0.197500 -0.045000 0.258750
v 0.196250 -0.045000 0.252500
v 0.197500 -0.045000 0.246250
v 0.198750 -0.045000 0.252500
v 0.198750 -0.045000 0.258750
v 0.196250 -0.045000 0.258750
v 0.196250 -0.045000 0.246250
v 0.198750 -0.045000 0.246250
v 0.195000 0.045000 0.258750
v 0.195000 0.045000 0.252500
v 0.195000 0.045000 0.246250
v 0.195000 0.022500 0.240000
v 0.195000 0.000000 0.240000
v 0.195000 -0.022500 0.240000
v 0.195000 -0.045000 0.246250
v 0.195000 -0.045000 0.252500
v 0.195000 -0.045000 0.258750
v 0.195000 -0.027501 0.265000
v 0.195000 -0.000000 0.265000
v 0.195000 0.029047 0.265000
v 0.198750 0.038476 0.262965
v 0.197500 0.038476 0.262965
v 0.196250 0.038476 0.262965
v 0.196250 -0.039750 0.263527
v 0.197500 -0.039750 0.263527
v 0.198750 -0.039750 0.263527
v 0.200000 -0.027501 0.265000
v 0.200000 -0.000000 0.265000
v 0.200000 0.029047 0.265000
v 0.200000 0.045000 0.246250
v 0.200000 0.045000 0.252500
v 0.200000 0.045000 0.258750
v 0.200000 -0.045000 0.258750
v 0.200000 -0.045000 0.252500
v 0.200000 -0.045000 0.246250
v 0.200000 -0.045000 0.240000
v 0.196250 0.045000 0.240000
v 0.197500 0.045000 0.240000
v 0.198750 0.045000 0.240000
v 0.198750 -0.045000 0.240000
v 0.197500 -0.045000 0.240000
v 0.196250 -0.045000 0.240000
v 0.195000 0.045000 0.240000
v 0.195000 -0.045000 0.240000
v 0.195000 0.038476 0.262965
v 0.195000 -0.039750 0.263527
v 0.200000 0.045000 0.240000
v 0.200000 0.038476 0.262965
v 0.200000 -0.039750 0.263527
v -0.200000 0.045000 -0.240000
v -0.200000 0.045000 0.240000
v 0.200000 0.045000 0.240000
v -0.200000 -0.045000 0.240000
v -0.200000 -0.045000 -0.240000
v 0.196250 0.044156 0.240000
v 0.197500 0.044437 0.240000
v 0.197531 0.044444 0.240000
v 0.198750 0.044719 0.240000
v 0.195000 0.043875 0.240000
v 0.198765 0.044722 0.240000
v 0.196250 0.044156 0.240000
v 0.197500 -0.045000 0.240000
v 0.195000 0.043875 0.240000
v 0.196250 0.045000 0.240000
v 0.197500 -0.044437 -0.240000
v 0.195000 -0.043875 -0.240000
v 0.196250 -0.044156 -0.240000
v 0.196250 -0.045000 -0.240000
v 0.198750 -0.044719 -0.240000
v 0.197500 0.045000 -0.240000
vt 0.824704 0.065108
vt 0.824704 0.065108
vt 0.824704 0.065108
vt 0.824704 0.065108
vt 0.824704 0.065108
vt 0.824704 0.065108
vt 0.824704 0.065108
vt 0.824704 0.065108
vt 0.824704 0.065108
vt 0.973523 0.713090
vt 0.973523 0.713090
vt 0.973523 0.713090
vt 0.973523 0.713090
vt 0.973523 0.713090
vt 0.973523 0.713090
vt 0.973523 0.713090
vt 0.973523 0.713090
vt 0.973523 0.713090
vt 0.973523 0.713090
vt 0.973523 0.713090
vt 0.973523 0.713090
vt 0.973523 0.713090
vt 0.824704 0.065108
vt 0.824704 0.065108
vt 0.824704 0.065108
vt 0.824704 0.065108
vt 0.824704 0.065108
vt 0.824704 0.065108
vt 0.824704 0.065108
vt 0.824704 0.065108
vt 0.824704 0.065108
vt 0.824704 0.065108
vt 0.824704 0.065108
vt 0.824704 0.065108
vt 0.824704 0.065108
vt 0.824704 0.065108
vt 0.824704 0.065108
vt 0.824704 0.065108
vt 0.824704 0.065108
vt 0.824704 0.065108
vt 0.824704 0.065108
vt 0.824704 0.065108
vt 0.824704 0.065108
vt 0.824704 0.065108
vt 0.824704 0.065108
vt 0.824704 0.065108
vt 0.824704 0.065108
vt 0.824704 0.065108
vt 0.824704 0.065108
vt 0.824704 0.065108
vt 0.824704 0.065108
vt 0.824704 0.065108
vt 0.824704 0.065108
vt 0.824704 0.065108
vt 0.824704 0.065108
vt 0.824704 0.065108
vt 0.824704 0.065108
vt 0.824704 0.065108
vt 0.824704 0.065108
vt 0.824704 0.065108
vt 0.824704 0.065108
vt 0.824704 0.065108
vt 0.824704 0.065108
vt 0.824704 0.065108
vt 0.824704 0.065108
vt 0.824704 0.065108
vt 0.824704 0.065108
vt 0.824704 0.065108
vt 0.973523 0.713090
vt 0.973523 0.713090
vt 0.973523 0.713090
vt 0.973523 0.713090
vt 0.824704 0.065108
vt 0.824704 0.065108
vt 0.824704 0.065108
vt 0.824704 0.065108
vt 0.824704 0.065108
vt 0.824704 0.065108
vt 0.973523 0.713090
vt 0.973523 0.713090
vt 0.824704 0.065108
vt 0.824704 0.065108
vt 0.824704 0.065108
vt 0.824704 0.065108
vt 0.824704 0.065108
vt 0.824704 0.065108
vt 0.973523 0.713090
vt 0.973523 0.713090
vt 0.973523 0.713090
vt 0.824704 0.065108
vt 0.824704 0.065108
vt 0.824704 0.065108
vt 0.824704 0.065108
vt 0.824704 0.065108
vt 0.824704 0.065108
vt 0.824704 0.065108
vt 0.824704 0.065108
vt 0.824704 0.065108
vt 0.824704 0.065108
vt 0.824704 0.065108
vt 0.824704 0.065108
vt 0.824704 0.065108
vt 0.824704 0.065108
vt 0.824704 0.065108
vt 0.824704 0.065108
vt 0.824704 0.065108
vt 0.824704 0.065108
vt 0.824704 0.065108
vt 0.824704 0.065108
vt 0.824704 0.065108
vt 0.824704 0.065108
vt 0.824704 0.065108
vt 0.824704 0.065108
vt 0.824704 0.065108
vt 0.824704 0.065108
vt 0.824704 0.065108
vt 0.824704 0.065108
vt 0.824704 0.065108
vt 0.824704 0.065108
vt 0.824704 0.065108
vt 0.000000 0.000000
vt 0.000000 0.000000
vt 0.824704 0.065108
vt 0.824704 0.065108
vt 0.824704 0.065108
vt 0.824704 0.065108
vt 0.824704 0.065108
vt 0.824704 0.065108
vt 0.000000 0.000000
vt 0.000000 0.000000
vt 0.000000 0.000000
vt 0.000000 0.000000
vt 0.824704 0.065108
vt 0.824704 0.065108
vt 0.824704 0.065108
vt 0.824704 0.065108
vt 0.824704 0.065108
vt 0.824704 0.065108
vt 0.824704 0.065108
vt 0.824704 0.065108
vt 0.824704 0.065108
vt 0.824704 0.065108
vt 0.824704 0.065108
vt 0.824704 0.065108
vt 0.824704 0.065108
vt 0.824704 0.065108
vt 0.824704 0.065108
vt 0.824704 0.065108
vt 0.824704 0.065108
vt 0.824704 0.065108
vt 0.824704 0.065108
vt 0.824704 0.065108
vt 0.824704 0.065108
vt 0.824704 0.065108
vt 0.824704 0.065108
vt 0.824704 0.065108
vt 0.824704 0.065108
vt 0.824704 0.065108
vt 0.824704 0.065108
vt 0.824704 0.065108
vt 0.824704 0.065108
vt 0.824704 0.065108
vt 0.824704 0.065108
vt 0.824704 0.065108
vt 0.824704 0.065108
vt 0.824704 0.065108
vt 0.824704 0.065108
vt 0.824704 0.065108
vt 0.824704 0.065108
vt 0.824704 0.065108
vt 0.824704 0.065108
vt 0.824704 0.065108
vt 0.824704 0.065108
vt 0.824704 0.065108
vt 0.824704 0.065108
vt 0.824704 0.065108
vt 0.824704 0.065108
vt 0.824704 0.065108
vt 0.824704 0.065108
vt 0.824704 0.065108
vt 0.824704 0.065108
vt 0.824704 0.065108
vt 0.824704 0.065108
vt 0.824704 0.065108
vt 0.824704 0.065108
vt 0.824704 0.065108
vt 0.824704 0.065108
vt 0.824704 0.065108
vt 0.824704 0.065108
vt 0.824704 0.065108
vt 0.824704 0.065108
vt 0.824704 0.065108
vt 0.824704 0.065108
vt 0.824704 0.065108
vt 0.824704 0.065108
vt 0.824704 0.065108
vt 0.824704 0.065108
vt 0.824704 0.065108
vt 0.824704 0.065108
vt 0.824704 0.065108
vt 0.824704 0.065108
vt 0.824704 0.065108
vt 0.824704 0.065108
vt 0.824704 0.065108
vt 0.824704 0.065108
vt 0.824704 0.065108
vt 0.824704 0.065108
vt 0.824704 0.065108
vt 0.824704 0.065108
vt 0.824704 0.065108
vt 0.824704 0.065108
vt 0.824704 0.065108
vt 0.000000 0.000000
vt 0.824704 0.065108
vt 0.825443 0.590112
vt 0.847657 0.174441
vt 0.937543 0.174441
vt 0.819242 0.106711
vt 0.931342 0.104804
vt 0.841456 0.112433
vt 0.640669 0.590112
vt 0.640669 0.173049
vt 0.794736 0.176825
vt 0.794736 0.590112
vt 0.950142 0.775036
vt 0.053087 0.779083
vt 0.052013 0.605526
vt 0.951109 0.606574
vt 0.015983 0.795962
vt 0.983680 0.795255
vt 0.984910 0.986490
vt 0.014869 0.987919
vt 0.628914 0.298169
vt 0.017879 0.299953
vt 0.016686 0.019791
vt 0.627715 0.016233
vt 0.015265 0.311919
vt 0.017580 0.311921
vt 0.021918 0.596952
vt 0.014973 0.596946
vt 0.959757 0.174441
vt 0.981971 0.590112
vt 0.024233 0.596954
vt 0.019895 0.311923
vt 0.628045 0.312547
vt 0.627753 0.597574
vt 0.678330 0.169273
vt 0.697161 0.169273
vt 0.794736 0.169273
vt 0.640669 0.171161
vt 0.794736 0.174937
vt 0.016683 0.018904
vt 0.016671 0.016245
vt 0.627707 0.014460
vt 0.627711 0.015347
vt 0.981971 0.174441
vt 0.980860 0.174441
vt 0.825443 0.170627
vt 0.825443 0.172534
vt 0.825443 0.174441
vt 0.975770 0.112433
vt 0.974659 0.112433
vt 0.975770 0.110526
vt 0.953556 0.112433
vt 0.931342 0.112433
vt 0.819242 0.110526
vt 0.819242 0.108619
vt 0.975770 0.104804
vn -1.0000 0.0000 0.0000
vn 1.0000 0.0000 0.0000
vn 0.0000 0.0000 1.0000
vn -0.0000 0.0000 -1.0000
vn 0.0000 1.0000 0.0000
vn 0.0000 -0.2109 -0.9775
vn 0.0000 0.1194 -0.9928
vn 0.0000 0.0001 -1.0000
vn 0.0000 -0.5427 -0.8399
vn 0.0000 -1.0000 0.0000
vn 0.0000 0.6730 -0.7396
vn 0.0000 0.6730 -0.7397
vn 0.0000 0.2109 0.9775
vn 0.0000 -0.1194 0.9928
vn 0.0017 0.0000 -1.0000
vn 0.0000 0.5427 0.8399
vn 0.0000 -0.6730 0.7396
vn 0.0000 -0.6730 0.7397
vn 0.0000 0.1270 -0.9919
vn -0.0000 0.0848 -0.9964
usemtl Material
s off
f 54/1/1 84/2/1 198/3/1
f 8/4/1 87/5/1 61/6/1
f 9/7/1 86/8/1 52/9/1
f 24/10/2 88/11/2 72/12/2
f 25/13/2 89/14/2 76/15/2
f 22/16/2 26/17/2 28/18/2
f 26/17/2 78/19/2 28/18/2
f 22/16/2 79/20/2 27/21/2
f 27/21/2 79/20/2 73/22/2
f 28/23/3 30/24/3 79/25/3
f 201/26/3 79/25/3 30/24/3
f 29/27/3 82/28/3 202/29/3
f 83/30/3 57/31/3 32/32/3
f 143/33/1 175/34/1 195/35/1
f 97/36/1 178/37/1 150/38/1
f 98/39/1 177/40/1 141/41/1
f 113/42/2 180/43/2 161/44/2
f 114/45/2 181/46/2 165/47/2
f 111/48/2 168/49/2 31/50/2
f 115/51/2 167/52/2 168/49/2
f 111/48/2 31/50/2 116/53/2
f 31/50/2 162/54/2 116/53/2
f 117/55/4 119/56/4 31/50/4
f 119/56/4 192/57/4 31/50/4
f 117/55/4 168/49/4 120/58/4
f 120/58/4 168/49/4 172/59/4
f 119/56/4 189/60/4 190/61/4
f 187/62/3 193/63/3 169/64/3
f 56/65/1 2/66/1 6/67/1 55/68/1
f 23/69/2 19/70/2 22/16/2 27/21/2
f 26/17/2 21/71/2 77/72/2 78/19/2
f 95/73/1 143/33/1 195/35/1 144/74/1
f 59/75/1 3/76/1 7/77/1 58/78/1
f 24/10/2 23/69/2 74/79/2 75/80/2
f 78/81/5 51/82/5 82/28/5 28/23/5
f 92/83/1 90/84/1 91/85/1 96/86/1
f 21/71/2 19/70/2 20/87/2 25/13/2
f 25/13/2 20/87/2 71/88/2 70/89/2
f 5/90/1 1/91/1 4/92/1 9/7/1
f 8/4/1 60/93/1 87/5/1
f 53/94/1 5/90/1 9/7/1 52/9/1
f 77/72/2 21/71/2 25/13/2 76/15/2
f 71/88/2 20/87/2 24/10/2 72/12/2
f 9/7/1 63/95/1 86/8/1
f 62/96/4 11/97/4 15/98/4 63/95/4
f 15/98/6 14/99/6 65/100/6 66/101/6
f 63/95/6 15/98/6 66/101/6 86/8/6
f 12/102/4 10/103/4 11/97/4 16/104/4
f 68/105/7 12/102/7 16/104/7 67/106/7
f 16/104/4 11/97/4 62/96/4 61/6/4
f 67/106/7 16/104/7 61/6/7 87/5/7
f 13/107/4 10/103/4 12/102/4 17/108/4
f 71/109/4 13/107/4 17/108/4 70/110/4
f 17/108/7 12/102/7 68/105/7 69/111/7
f 70/110/7 17/108/7 69/111/7 89/112/7
f 14/99/4 10/103/4 13/107/4 18/113/4
f 65/100/6 14/99/6 18/113/6 64/114/6
f 95/73/1 94/115/1 142/116/1 143/33/1
f 64/114/6 18/113/6 72/117/6 88/118/6
f 77/119/5 47/120/5 51/82/5 78/81/5
f 6/67/1 5/90/1 53/94/1 54/1/1
f 192/121/8 171/122/8 179/123/8 31/50/8
f 91/85/1 90/84/1 94/115/1 95/73/1
f 24/10/2 75/80/2 88/11/2
f 8/4/1 3/76/1 59/75/1 60/93/1
f 73/22/2 74/79/2 23/69/2 27/21/2
f 160/124/2 109/125/2 113/42/2 161/44/2
f 25/13/2 70/89/2 89/14/2
f 142/116/1 94/115/1 98/39/1 141/41/1
f 3/76/1 1/91/1 2/66/1 7/77/1
f 96/86/1 91/85/1 145/126/1 146/127/1
f 22/16/2 19/70/2 21/71/2 26/17/2
f 22/16/2 28/18/2 79/20/2
f 201/26/3 81/128/3 79/25/3
f 29/27/3 28/23/3 82/28/3
f 83/129/5 50/130/5 58/131/5 85/132/5
f 83/30/3 85/133/3 57/31/3
f 200/134/3 80/135/3 197/136/3 199/137/3
f 33/138/3 55/68/3 198/3/3 199/137/3
f 65/100/9 35/139/9 39/140/9 66/101/9
f 39/140/10 38/141/10 53/94/10 52/9/10
f 66/101/9 39/140/9 52/9/9 86/8/9
f 36/142/10 34/143/10 35/139/10 40/144/10
f 74/145/10 36/142/10 40/144/10 75/146/10
f 40/144/9 35/139/9 65/100/9 64/114/9
f 75/146/9 40/144/9 64/114/9 88/118/9
f 37/147/10 34/143/10 36/142/10 41/148/10
f 80/135/10 37/147/10 41/148/10 81/128/10
f 41/148/10 36/142/10 74/145/10 73/149/10
f 81/128/10 41/148/10 73/149/10 79/25/10
f 38/141/10 34/143/10 37/147/10 42/150/10
f 53/94/10 38/141/10 42/150/10 54/1/10
f 42/150/10 37/147/10 80/135/10 200/134/10
f 54/1/10 42/150/10 200/134/10 84/2/10
f 44/151/5 43/152/5 47/120/5 48/153/5
f 68/105/11 44/151/11 48/153/11 69/111/11
f 48/153/5 47/120/5 77/119/5 76/154/5
f 69/111/11 48/153/11 76/154/11 89/112/11
f 45/155/5 43/152/5 44/151/5 49/156/5
f 49/156/12 44/151/12 68/105/12 67/106/12
f 60/93/11 49/156/11 67/106/11 87/5/11
f 153/157/13 107/158/13 161/44/13 180/43/13
f 46/159/5 43/152/5 45/155/5 50/160/5
f 202/29/5 46/159/5 50/160/5 83/30/5
f 166/161/10 136/162/10 140/163/10 167/52/10
f 35/139/10 34/143/10 38/141/10 39/140/10
f 50/160/5 45/155/5 59/75/5 58/78/5
f 140/163/10 135/164/10 173/165/10 172/59/10
f 47/120/5 43/152/5 46/159/5 51/82/5
f 11/97/4 10/103/4 14/99/4 15/98/4
f 51/82/5 46/159/5 202/29/5 82/28/5
f 4/92/1 1/91/1 3/76/1 8/4/1
f 7/77/1 2/66/1 56/65/1 57/31/1
f 112/166/2 108/167/2 111/48/2 116/53/2
f 167/52/10 140/163/10 172/59/10 168/49/10
f 163/168/2 112/166/2 116/53/2 162/54/2
f 85/133/1 58/78/1 7/77/1 57/31/1
f 111/48/2 108/167/2 110/169/2 115/51/2
f 62/96/1 4/92/1 8/4/1 61/6/1
f 93/170/1 90/84/1 92/83/1 97/36/1
f 97/36/1 149/171/1 178/37/1
f 97/36/1 92/83/1 148/172/1 149/171/1
f 94/115/1 90/84/1 93/170/1 98/39/1
f 9/7/1 4/92/1 62/96/1 63/95/1
f 98/39/1 152/173/1 177/40/1
f 100/174/3 99/175/3 103/176/3 104/177/3
f 151/178/3 100/174/3 104/177/3 152/173/3
f 104/177/13 103/176/13 154/179/13 155/180/13
f 152/173/13 104/177/13 155/180/13 177/40/13
f 101/181/3 99/175/3 100/174/3 105/182/3
f 157/183/14 101/181/14 105/182/14 156/184/14
f 105/182/3 100/174/3 151/178/3 150/38/3
f 156/184/14 105/182/14 150/38/14 178/37/14
f 102/185/3 99/175/3 101/181/3 106/186/3
f 160/124/3 102/185/3 106/186/3 159/187/3
f 106/186/14 101/181/14 157/183/14 158/188/14
f 159/187/14 106/186/14 158/188/14 181/46/14
f 103/176/3 99/175/3 102/185/3 107/158/3
f 154/179/13 103/176/13 107/158/13 153/157/13
f 107/158/3 102/185/3 160/124/3 161/44/3
f 147/189/1 148/172/1 92/83/1 96/86/1
f 98/39/1 93/170/1 151/178/1 152/173/1
f 109/125/2 108/167/2 112/166/2 113/42/2
f 113/42/2 164/190/2 180/43/2
f 113/42/2 112/166/2 163/168/2 164/190/2
f 110/169/2 108/167/2 109/125/2 114/45/2
f 151/178/1 93/170/1 97/36/1 150/38/1
f 114/45/2 159/187/2 181/46/2
f 2/66/1 1/91/1 5/90/1 6/67/1
f 111/48/2 115/51/2 168/49/2
f 166/161/2 110/169/2 114/45/2 165/47/2
f 115/51/2 110/169/2 166/161/2 167/52/2
f 20/87/2 19/70/2 23/69/2 24/10/2
f 31/50/2 179/123/2 162/54/2
f 119/56/15 190/61/15 192/57/15
f 18/113/4 13/107/4 71/109/4 72/117/4
f 117/55/4 31/50/4 168/49/4
f 173/165/4 118/191/4 120/58/4 172/59/4
f 121/192/4 118/191/4 173/165/4 174/193/4
f 80/135/3 81/128/3 201/26/3 197/136/3
f 188/194/4 187/62/4 169/64/4 170/195/4
f 146/127/4 121/192/4 174/193/4 176/196/4
f 124/197/5 123/198/5 127/199/5 128/200/5
f 154/179/16 124/197/16 128/200/16 155/180/16
f 128/200/5 127/199/5 142/116/5 141/41/5
f 155/180/16 128/200/16 141/41/16 177/40/16
f 125/201/5 123/198/5 124/197/5 129/202/5
f 163/168/5 125/201/5 129/202/5 164/190/5
f 129/202/16 124/197/16 154/179/16 153/157/16
f 164/190/16 129/202/16 153/157/16 180/43/16
f 126/203/5 123/198/5 125/201/5 130/204/5
f 170/195/5 126/203/5 130/204/5 171/205/5
f 130/204/5 125/201/5 163/168/5 162/54/5
f 171/205/5 130/204/5 162/54/5 179/123/5
f 127/199/5 123/198/5 126/203/5 131/206/5
f 142/116/5 127/199/5 131/206/5 143/33/5
f 131/206/5 126/203/5 170/195/5 169/64/5
f 143/33/5 131/206/5 169/64/5 175/34/5
f 133/207/10 132/208/10 136/162/10 137/209/10
f 157/183/17 133/207/17 137/209/17 158/188/17
f 137/209/10 136/162/10 166/161/10 165/47/10
f 158/188/18 137/209/18 165/47/18 181/46/18
f 134/210/10 132/208/10 133/207/10 138/211/10
f 148/172/10 134/210/10 138/211/10 149/171/10
f 138/211/18 133/207/18 157/183/18 156/184/18
f 149/171/18 138/211/18 156/184/18 178/37/18
f 135/164/10 132/208/10 134/210/10 139/212/10
f 173/165/10 135/164/10 139/212/10 174/193/10
f 139/212/10 134/210/10 148/172/10 147/189/10
f 174/193/10 139/212/10 147/189/10 176/196/10
f 136/162/10 132/208/10 135/164/10 140/163/10
f 32/32/3 29/27/3 202/29/3 83/30/3
f 189/60/4 170/195/4 171/205/4 190/61/4
f 114/45/2 109/125/2 160/124/2 159/187/2
f 145/126/1 91/85/1 95/73/1 144/74/1
f 147/189/1 96/86/1 146/127/1 176/196/1
f 84/2/3 200/134/3 199/137/3 198/3/3
f 192/121/4 190/213/4 171/122/4
f 189/60/4 188/194/4 170/195/4
f 6/67/1 54/1/1 198/3/1 55/68/1
f 187/62/3 122/214/3 193/63/3
f 59/75/5 45/155/5 49/156/5 60/93/5
f 175/34/4 169/64/4 193/63/4 195/35/4
f 122/214/4 144/74/4 195/35/4 193/63/4
s 1
f 182/215/4 57/216/4 56/217/4
f 82/218/4 28/219/4 57/220/4
f 185/221/3 194/222/3 175/223/3 183/224/3
f 28/225/2 184/226/2 168/227/2 79/228/2
f 186/229/1 185/230/1 183/231/1 182/232/1
f 182/233/5 183/234/5 175/235/5 202/236/5
f 168/237/10 172/238/10 200/239/10 79/240/10
f 55/241/4 186/242/4 182/215/4 56/217/4
f 84/243/10 194/244/10 185/245/10 186/246/10
f 168/247/3 31/248/3 184/249/3
f 172/250/3 168/247/3 184/249/3 196/251/3
f 196/252/5 184/253/5 28/254/5 82/255/5
f 172/238/10 194/244/10 84/243/10 200/239/10
f 175/235/5 196/252/5 82/255/5 202/236/5
f 84/256/4 186/242/4 198/257/4
f 198/257/4 186/242/4 55/241/4
f 182/215/4 202/258/19 83/259/19
f 182/215/4 83/259/19 85/260/20
f 182/215/4 85/260/20 57/216/4
f 172/250/3 196/251/3 175/223/3 194/222/3
f 84/261/4 198/262/4 200/263/4
f 198/262/4 55/264/4 200/263/4
f 56/265/4 57/220/4 28/219/4
f 57/220/4 83/266/4 202/267/4
f 200/263/4 55/264/4 79/268/4
f 55/264/4 56/265/4 79/268/4
f 28/219/4 79/268/4 56/265/4
f 202/267/4 82/218/4 57/220/4
l 144 191
l 191 187
l 184 192
l 175 191
l 187 189
l 30 33
