# Blender v2.79 (sub 0) OBJ File: 'HP DL360.blend'
# www.blender.org
mtllib HP DL360.mtl
o unit_Cube.001
v 0.360000 -0.022500 0.265000
v 0.360000 0.022500 0.265000
v 0.360000 -0.022500 0.240000
v 0.360000 0.022500 0.240000
v 0.400000 -0.022500 0.265000
v 0.400000 0.022500 0.265000
v 0.400000 -0.022500 0.240000
v 0.400000 0.022500 0.240000
v 0.360000 -0.022500 -0.240000
v 0.360000 0.022500 -0.240000
v 0.360000 -0.022500 -0.265000
v 0.360000 0.022500 -0.265000
v 0.400000 -0.022500 -0.240000
v 0.400000 0.022500 -0.240000
v 0.400000 -0.022500 -0.265000
v 0.400000 0.022500 -0.265000
v -0.400000 0.022500 -0.240000
v -0.400000 0.022500 0.240000
v -0.400000 -0.022500 0.240000
v -0.400000 -0.022500 -0.240000
v 0.360000 -0.020250 -0.240000
v 0.361905 -0.020357 -0.240000
v 0.361905 0.020357 0.240000
v 0.360000 0.020250 0.240000
vt 0.849693 0.146624
vt 0.849693 0.132605
vt 0.857818 0.132605
vt 0.857818 0.133306
vt 0.857818 0.146624
vt 0.813820 0.142510
vt 0.813820 0.137009
vt 0.819190 0.142510
vt 0.046609 0.668440
vt 0.046672 0.742789
vt 0.008688 0.742855
vt 0.009357 0.668505
vt 0.860398 0.061563
vt 0.860398 0.006839
vt 0.911142 0.006839
vt 0.911142 0.061563
vt 0.909588 0.006235
vt 0.909588 0.060924
vt 0.873932 0.060924
vt 0.873932 0.006235
vt 0.815294 0.020874
vt 0.815294 0.099519
vt 0.764019 0.099519
vt 0.764019 0.020874
vt 0.840667 0.142510
vt 0.840667 0.142220
vt 0.840667 0.136719
vt 0.844023 0.136719
vt 0.844023 0.142510
vt 0.923738 0.071382
vt 0.923738 0.002001
vt 0.988072 0.002001
vt 0.988072 0.071382
vt 0.987678 0.667001
vt 0.988993 0.744258
vt 0.952024 0.744692
vt 0.950405 0.667178
vt 0.800397 0.142510
vt 0.805511 0.142234
vt 0.805766 0.142220
vt 0.805766 0.142510
vt 0.982270 0.092947
vt 0.982270 0.165051
vt 0.935260 0.165051
vt 0.935260 0.092947
vt 0.990597 0.095642
vt 0.990597 0.179014
vt 0.936240 0.179014
vt 0.936240 0.095642
vt 0.800397 0.136719
vt 0.814076 0.136995
vt 0.819190 0.136719
vt 0.813820 0.136719
vt 0.384892 0.020690
vt 0.384892 0.048276
vt 0.384892 0.581346
vt 0.014960 0.581346
vt 0.014961 0.048276
vt 0.014961 0.020690
vt 0.983959 0.840349
vt 0.984180 0.931738
vt 0.011080 0.932990
vt 0.011348 0.838016
vt 0.752754 0.020690
vt 0.752755 0.553760
vt 0.752755 0.581346
vt 0.407431 0.581346
vt 0.407431 0.553760
vt 0.407431 0.020690
vt 0.931557 0.663715
vt 0.933165 0.748490
vt 0.063056 0.748161
vt 0.063562 0.665858
vt 0.880731 0.581346
vt 0.762229 0.581346
vt 0.762229 0.191831
vt 0.879112 0.191831
vt 0.880731 0.191831
vt 0.762229 0.164244
vt 0.880731 0.164244
vt 0.990721 0.553760
vt 0.892294 0.553760
vt 0.890676 0.553760
vt 0.890675 0.164244
vt 0.990721 0.164244
vt 0.990721 0.581346
vt 0.890676 0.581346
vn -1.0000 0.0000 0.0000
vn 0.0000 -0.0000 -1.0000
vn 1.0000 -0.0000 0.0000
vn 0.0000 0.0000 1.0000
vn 0.0000 -1.0000 0.0000
vn 0.0000 1.0000 0.0000
usemtl Material
s off
f 1/1/1 2/2/1 4/3/1 24/4/1 3/5/1
f 3/6/2 24/7/2 7/8/2
f 7/9/3 8/10/3 6/11/3 5/12/3
f 5/13/4 6/14/4 2/15/4 1/16/4
f 3/17/5 7/18/5 5/19/5 1/20/5
f 8/21/6 4/22/6 2/23/6 6/24/6
f 9/25/1 21/26/1 10/27/1 12/28/1 11/29/1
f 11/30/2 12/31/2 16/32/2 15/33/2
f 15/34/3 16/35/3 14/36/3 13/37/3
f 13/38/4 22/39/4 21/40/4 9/41/4
f 11/42/5 15/43/5 13/44/5 9/45/5
f 16/46/6 12/47/6 10/48/6 14/49/6
f 14/50/4 21/40/4 22/39/4 13/38/4
f 7/8/2 24/7/2 23/51/2 8/52/2
f 24/7/2 4/53/2 8/52/2 23/51/2
s 1
f 14/54/6 10/55/6 17/56/6 18/57/6 4/58/6 8/59/6
f 19/60/1 18/61/1 17/62/1 20/63/1
f 20/64/5 9/65/5 13/66/5 7/67/5 3/68/5 19/69/5
f 13/70/3 14/71/3 8/72/3 7/73/3
f 20/74/2 17/75/2 10/76/2 21/77/2 9/78/2
f 9/78/2 21/77/2 14/79/2 13/80/2
f 14/79/2 21/77/2 10/76/2
f 3/81/4 24/82/4 4/83/4 18/84/4 19/85/4
f 4/83/4 24/82/4 7/86/4 8/87/4
