# Blender v2.79 (sub 0) OBJ File: 'x3950 M2.blend'
# www.blender.org
mtllib x3950 M2.mtl
o unit_Cube.001
v 0.360000 -0.090000 0.265000
v 0.360000 0.090000 0.265000
v 0.360000 -0.090000 0.240000
v 0.360000 0.090000 0.240000
v 0.400000 -0.090000 0.265000
v 0.400000 0.090000 0.265000
v 0.400000 -0.090000 0.240000
v 0.400000 0.090000 0.240000
v 0.360000 -0.090000 -0.240000
v 0.360000 0.090000 -0.240000
v 0.360000 -0.090000 -0.265000
v 0.360000 0.090000 -0.265000
v 0.400000 -0.090000 -0.240000
v 0.400000 0.090000 -0.240000
v 0.400000 -0.090000 -0.265000
v 0.400000 0.090000 -0.265000
v -0.400000 0.090000 -0.240000
v -0.400000 0.090000 0.240000
v -0.400000 -0.090000 0.240000
v -0.400000 -0.090000 -0.240000
v 0.360000 -0.081000 -0.240000
v 0.361905 -0.081428 -0.240000
v 0.361905 0.081428 0.240000
v 0.360000 0.081000 0.240000
v 0.400000 -0.000000 -0.265000
v 0.400000 -0.000000 -0.240000
v 0.400000 -0.090000 0.265000
v 0.400000 0.090000 0.265000
v 0.400000 -0.090000 0.240000
v 0.400000 0.090000 0.240000
v 0.400000 0.000000 0.265000
v 0.400000 0.000000 0.240000
vt 0.824830 0.009418
vt 0.824830 0.093695
vt 0.775988 0.093695
vt 0.775988 0.089482
vt 0.775988 0.009418
vt 0.795094 0.115260
vt 0.795094 0.099449
vt 0.810526 0.115260
vt 0.854788 0.086968
vt 0.854788 0.014871
vt 0.921641 0.014871
vt 0.921641 0.086968
vt 0.921495 0.007836
vt 0.921495 0.093098
vt 0.865906 0.093098
vt 0.865906 0.007836
vt 0.817629 0.010701
vt 0.817629 0.087315
vt 0.781236 0.087315
vt 0.781236 0.010701
vt 0.828915 0.091218
vt 0.828915 0.087190
vt 0.828915 0.010646
vt 0.875610 0.010646
vt 0.875610 0.091218
vt 0.921294 0.077462
vt 0.921294 0.008080
vt 0.985628 0.008080
vt 0.985628 0.042771
vt 0.985628 0.077462
vt 0.994694 0.891941
vt 0.994892 0.993635
vt 0.938463 0.993603
vt 0.937852 0.891456
vt 0.756513 0.115260
vt 0.771210 0.114468
vt 0.771945 0.114428
vt 0.771945 0.115260
vt 0.977382 0.018476
vt 0.953877 0.090580
vt 0.930372 0.090580
vt 0.930372 0.018476
vt 0.976649 0.011976
vt 0.976649 0.090345
vt 0.925554 0.090345
vt 0.925554 0.011976
vt 0.756513 0.098617
vt 0.756513 0.106939
vt 0.795829 0.099410
vt 0.810526 0.098617
vt 0.795094 0.098617
vt 0.995013 0.777389
vt 0.994701 0.891728
vt 0.937634 0.891605
vt 0.937681 0.776958
vt 0.039461 0.877432
vt 0.037302 0.950330
vt 0.004661 0.950259
vt 0.006456 0.877127
vt 0.039209 0.810325
vt 0.037609 0.861754
vt 0.006328 0.861740
vt 0.008188 0.810306
vt 0.775962 0.069247
vt 0.878855 0.080231
vt 0.775967 0.078888
vt 0.878836 0.070337
vt 0.981710 0.071428
vt 0.981743 0.081573
vt 0.384892 0.007421
vt 0.384892 0.035007
vt 0.384892 0.519228
vt 0.014960 0.519228
vt 0.014961 0.035007
vt 0.014961 0.007421
vt 0.952488 0.537039
vt 0.964326 0.770523
vt 0.033859 0.770103
vt 0.043882 0.538696
vt 0.752754 0.007421
vt 0.752755 0.490684
vt 0.752755 0.518271
vt 0.407431 0.518271
vt 0.407431 0.490684
vt 0.407431 0.007421
vt 0.937665 0.776794
vt 0.937591 0.891484
vt 0.938534 0.993718
vt 0.036617 0.995976
vt 0.042999 0.777631
vt 0.880731 0.519228
vt 0.762229 0.519228
vt 0.762229 0.150214
vt 0.879112 0.150214
vt 0.880731 0.150214
vt 0.762229 0.122628
vt 0.821480 0.122628
vt 0.880731 0.122628
vt 0.990721 0.519407
vt 0.892294 0.519407
vt 0.890676 0.519407
vt 0.890675 0.122628
vt 0.990721 0.122628
vt 0.635090 0.473451
vt 0.636709 0.473451
vt 0.735136 0.501037
vt 0.635090 0.501037
vn -1.0000 0.0000 0.0000
vn 0.0000 0.0000 -1.0000
vn 0.0000 0.0000 1.0000
vn 0.0000 -1.0000 0.0000
vn 0.0000 1.0000 -0.0000
vn 1.0000 0.0000 0.0000
usemtl Material
s off
f 1/1/1 2/2/1 4/3/1 24/4/1 3/5/1
f 3/6/2 24/7/2 7/8/2
f 5/9/3 6/10/3 2/11/3 1/12/3
f 3/13/4 7/14/4 5/15/4 1/16/4
f 8/17/5 4/18/5 2/19/5 6/20/5
f 9/21/1 21/22/1 10/23/1 12/24/1 11/25/1
f 11/26/2 12/27/2 16/28/2 25/29/2 15/30/2
f 25/31/6 16/32/6 14/33/6 26/34/6
f 13/35/3 22/36/3 21/37/3 9/38/3
f 11/39/4 15/40/4 13/41/4 9/42/4
f 16/43/5 12/44/5 10/45/5 14/46/5
f 14/47/3 21/37/3 22/36/3 13/35/3 26/48/3
f 7/8/2 24/7/2 23/49/2 8/50/2
f 24/7/2 4/51/2 8/50/2 23/49/2
f 15/52/6 25/53/6 26/54/6 13/55/6
f 32/56/6 8/57/6 28/58/6 31/59/6
f 7/60/6 32/61/6 31/62/6 27/63/6
f 29/64/3 32/65/3 7/66/3
f 32/67/3 30/68/3 8/69/3
s 1
f 14/70/5 10/71/5 17/72/5 18/73/5 4/74/5 8/75/5
f 19/76/1 18/77/1 17/78/1 20/79/1
f 20/80/4 9/81/4 13/82/4 7/83/4 3/84/4 19/85/4
f 13/86/6 26/87/6 14/88/6 8/89/6 7/90/6
f 20/91/2 17/92/2 10/93/2 21/94/2 9/95/2
f 9/95/2 21/94/2 14/96/2 26/97/2 13/98/2
f 14/96/2 21/94/2 10/93/2
f 3/99/3 24/100/3 4/101/3 18/102/3 19/103/3
f 4/104/3 24/105/3 7/106/3 8/107/3
