# Blender v2.79 (sub 0) OBJ File: 'x3750 M4.blend'
# www.blender.org
mtllib x3750 M4.mtl
o unit_Cube.001
v 0.180000 -0.045000 0.265000
v 0.180000 0.045000 0.265000
v 0.180000 -0.045000 0.240000
v 0.180000 0.045000 0.240000
v 0.200000 -0.045000 0.265000
v 0.200000 0.045000 0.265000
v 0.200000 -0.045000 0.240000
v 0.200000 0.045000 0.240000
v 0.180000 -0.045000 -0.240000
v 0.180000 0.045000 -0.240000
v 0.180000 -0.045000 -0.265000
v 0.180000 0.045000 -0.265000
v 0.200000 -0.045000 -0.240000
v 0.200000 0.045000 -0.240000
v 0.200000 -0.045000 -0.265000
v 0.200000 0.045000 -0.265000
v -0.200000 0.045000 -0.240000
v -0.200000 0.045000 0.240000
v -0.200000 -0.045000 0.240000
v -0.200000 -0.045000 -0.240000
v 0.180000 -0.040500 -0.240000
v 0.180952 -0.040714 -0.240000
v 0.180952 0.040714 0.240000
v 0.180000 0.040500 0.240000
v 0.200000 0.000000 -0.240000
v 0.200000 0.000000 0.265000
v 0.200000 -0.000000 0.240000
v 0.200000 -0.000000 -0.265000
vt 0.841036 0.053851
vt 0.775911 0.053359
vt 0.776196 0.015616
vt 0.779452 0.015641
vt 0.841322 0.016109
vt 0.773677 0.436573
vt 0.744195 0.436350
vt 0.773894 0.407797
vt 0.839852 0.145862
vt 0.809957 0.145636
vt 0.780062 0.145410
vt 0.780621 0.071489
vt 0.860341 0.072092
vt 0.981273 0.115545
vt 0.981273 0.151573
vt 0.957784 0.151573
vt 0.969528 0.115545
vt 0.950896 0.136123
vt 0.949848 0.154200
vt 0.863164 0.153794
vt 0.863412 0.134954
vt 0.952922 0.135382
vt 0.956381 0.131586
vt 0.865185 0.130896
vt 0.865824 0.046334
vt 0.911422 0.046679
vt 0.957020 0.047023
vt 0.775086 0.475310
vt 0.773815 0.447893
vt 0.773752 0.446522
vt 0.774327 0.446534
vt 0.880683 0.014463
vt 0.874501 0.042588
vt 0.848013 0.042588
vt 0.848013 0.014463
vt 0.961065 0.047862
vt 0.992317 0.047862
vt 0.992317 0.068237
vt 0.961065 0.068237
vt 0.744052 0.475076
vt 0.759569 0.475193
vt 0.751811 0.475134
vt 0.744131 0.434979
vt 0.758377 0.407679
vt 0.766136 0.407738
vt 0.742643 0.436338
vt 0.742861 0.407562
vt 0.987227 0.074154
vt 0.975504 0.110116
vt 0.963781 0.110116
vt 0.963781 0.074154
vt 0.039384 0.607508
vt 0.039264 0.652609
vt 0.004713 0.652454
vt 0.004757 0.607532
vt 0.055120 0.711155
vt 0.055684 0.775877
vt 0.007479 0.775296
vt 0.007946 0.710792
vt 0.941425 0.778265
vt 0.939995 0.691754
vt 0.983753 0.691880
vt 0.984251 0.777174
vt 0.992314 0.608474
vt 0.992606 0.653100
vt 0.958512 0.653091
vt 0.958521 0.608205
vt 0.367314 0.008971
vt 0.367314 0.036557
vt 0.367314 0.581100
vt 0.021990 0.581100
vt 0.021990 0.036557
vt 0.021990 0.008971
vt 0.990978 0.799691
vt 0.994484 0.985388
vt 0.010336 0.985744
vt 0.013371 0.803573
vt 0.737087 0.008971
vt 0.737087 0.549566
vt 0.737087 0.577152
vt 0.391763 0.577152
vt 0.391763 0.549566
vt 0.391763 0.008971
vt 0.939394 0.609081
vt 0.940086 0.691700
vt 0.941647 0.778436
vt 0.055500 0.778922
vt 0.054967 0.702248
vt 0.055216 0.606169
vt 0.887253 0.583011
vt 0.782613 0.583011
vt 0.782613 0.161588
vt 0.885634 0.161588
vt 0.887253 0.161588
vt 0.991313 0.040956
vt 0.989694 0.040956
vt 0.886673 0.013369
vt 0.938993 0.013369
vt 0.991313 0.013369
vt 0.886673 0.040956
vt 0.995019 0.581017
vt 0.899810 0.581017
vt 0.898192 0.581017
vt 0.898192 0.162897
vt 0.995019 0.162897
vt 0.898192 0.555425
vt 0.899810 0.555425
vt 0.995019 0.576664
vt 0.946605 0.576664
vt 0.898192 0.576664
vn -1.0000 0.0000 0.0000
vn 0.0000 -0.0000 -1.0000
vn 0.0000 0.0000 1.0000
vn 0.0000 1.0000 0.0000
vn 0.0000 -1.0000 0.0000
vn 1.0000 0.0000 0.0000
usemtl Material
s off
f 1/1/1 2/2/1 4/3/1 24/4/1 3/5/1
f 3/6/2 24/7/2 7/8/2
f 5/9/3 26/10/3 6/11/3 2/12/3 1/13/3
f 8/14/4 4/15/4 2/16/4 6/17/4
f 9/18/1 21/19/1 10/20/1 12/21/1 11/22/1
f 11/23/2 12/24/2 16/25/2 28/26/2 15/27/2
f 13/28/3 22/29/3 21/30/3 9/31/3
f 11/32/5 15/33/5 13/34/5 9/35/5
f 16/36/4 12/37/4 10/38/4 14/39/4
f 14/40/3 21/30/3 22/29/3 13/41/3 25/42/3
f 7/8/2 24/7/2 23/43/2 8/44/2 27/45/2
f 24/7/2 4/46/2 8/47/2 23/43/2
f 3/48/5 7/49/5 5/50/5 1/51/5
f 7/52/6 27/53/6 26/54/6 5/55/6
f 27/56/6 8/57/6 6/58/6 26/59/6
f 14/60/6 25/61/6 28/62/6 16/63/6
f 15/64/6 28/65/6 25/66/6 13/67/6
s 1
f 14/68/4 10/69/4 17/70/4 18/71/4 4/72/4 8/73/4
f 19/74/1 18/75/1 17/76/1 20/77/1
f 20/78/5 9/79/5 13/80/5 7/81/5 3/82/5 19/83/5
f 13/84/6 25/85/6 14/86/6 8/87/6 27/88/6 7/89/6
f 20/90/2 17/91/2 10/92/2 21/93/2 9/94/2
f 9/95/2 21/96/2 14/97/2 25/98/2 13/99/2
f 14/97/2 21/96/2 10/100/2
f 3/101/3 24/102/3 4/103/3 18/104/3 19/105/3
f 4/106/3 24/107/3 7/108/3 27/109/3 8/110/3
