# Blender v2.79 (sub 0) OBJ File: 'HP Gen10.blend'
# www.blender.org
mtllib HP Gen10.mtl
o unit_Cube.001
v 0.360000 -0.045000 0.265000
v 0.360000 0.045000 0.265000
v 0.360000 -0.045000 0.240000
v 0.360000 0.045000 0.240000
v 0.400000 -0.045000 0.265000
v 0.400000 0.045000 0.265000
v 0.400000 -0.045000 0.240000
v 0.400000 0.045000 0.240000
v 0.360000 -0.045000 -0.240000
v 0.360000 0.045000 -0.240000
v 0.360000 -0.045000 -0.265000
v 0.360000 0.045000 -0.265000
v 0.400000 -0.045000 -0.240000
v 0.400000 0.045000 -0.240000
v 0.400000 -0.045000 -0.265000
v 0.400000 0.045000 -0.265000
v -0.400000 0.045000 -0.240000
v -0.400000 0.045000 0.240000
v -0.400000 -0.045000 0.240000
v -0.400000 -0.045000 -0.240000
v 0.360000 -0.040500 -0.240000
v 0.361905 -0.040714 -0.240000
v 0.361905 0.040714 0.240000
v 0.360000 0.040500 0.240000
vt 0.849693 0.146624
vt 0.849693 0.132605
vt 0.857818 0.132605
vt 0.857818 0.133306
vt 0.857818 0.146624
vt 0.813820 0.142510
vt 0.813820 0.137009
vt 0.819190 0.142510
vt 0.047586 0.617414
vt 0.044475 0.780875
vt 0.004537 0.780941
vt 0.007892 0.617236
vt 0.857468 0.068399
vt 0.857468 0.013675
vt 0.908213 0.013675
vt 0.908213 0.068399
vt 0.910565 0.015024
vt 0.910565 0.069713
vt 0.874909 0.069713
vt 0.874909 0.015024
vt 0.830919 0.022827
vt 0.830919 0.130769
vt 0.779644 0.130769
vt 0.779644 0.022827
vt 0.838535 0.133992
vt 0.838535 0.129965
vt 0.838535 0.053440
vt 0.885218 0.053440
vt 0.885218 0.133992
vt 0.924715 0.083101
vt 0.924715 0.013720
vt 0.989049 0.013720
vt 0.989049 0.083101
vt 0.992834 0.617142
vt 0.996249 0.781322
vt 0.942244 0.781937
vt 0.941528 0.616830
vt 0.800397 0.142510
vt 0.805511 0.142234
vt 0.805766 0.142220
vt 0.805766 0.142510
vt 0.974458 0.078298
vt 0.974458 0.150403
vt 0.927447 0.150403
vt 0.927447 0.078298
vt 0.988644 0.070251
vt 0.988644 0.153623
vt 0.934287 0.153623
vt 0.934287 0.070251
vt 0.800397 0.136719
vt 0.814076 0.136995
vt 0.819190 0.136719
vt 0.813820 0.136719
vt 0.384892 0.020690
vt 0.384892 0.048276
vt 0.384892 0.581346
vt 0.014960 0.581346
vt 0.014961 0.048276
vt 0.014961 0.020690
vt 0.976837 0.804503
vt 0.977243 0.995502
vt 0.022899 0.995575
vt 0.024717 0.804294
vt 0.752754 0.020690
vt 0.752755 0.553760
vt 0.752755 0.581346
vt 0.407431 0.581346
vt 0.407431 0.553760
vt 0.407431 0.020690
vt 0.940603 0.610179
vt 0.942009 0.783601
vt 0.045844 0.779655
vt 0.048060 0.611946
vt 0.880731 0.581346
vt 0.762229 0.581346
vt 0.762229 0.191831
vt 0.879112 0.191831
vt 0.880731 0.191831
vt 0.762229 0.164244
vt 0.880731 0.164244
vt 0.990721 0.553760
vt 0.892294 0.553760
vt 0.890676 0.553760
vt 0.890675 0.164244
vt 0.990721 0.164244
vt 0.990721 0.581346
vt 0.890676 0.581346
vn -1.0000 0.0000 0.0000
vn 0.0000 -0.0000 -1.0000
vn 1.0000 -0.0000 0.0000
vn 0.0000 0.0000 1.0000
vn 0.0000 -1.0000 0.0000
vn 0.0000 1.0000 0.0000
usemtl Material
s off
f 1/1/1 2/2/1 4/3/1 24/4/1 3/5/1
f 3/6/2 24/7/2 7/8/2
f 7/9/3 8/10/3 6/11/3 5/12/3
f 5/13/4 6/14/4 2/15/4 1/16/4
f 3/17/5 7/18/5 5/19/5 1/20/5
f 8/21/6 4/22/6 2/23/6 6/24/6
f 9/25/1 21/26/1 10/27/1 12/28/1 11/29/1
f 11/30/2 12/31/2 16/32/2 15/33/2
f 15/34/3 16/35/3 14/36/3 13/37/3
f 13/38/4 22/39/4 21/40/4 9/41/4
f 11/42/5 15/43/5 13/44/5 9/45/5
f 16/46/6 12/47/6 10/48/6 14/49/6
f 14/50/4 21/40/4 22/39/4 13/38/4
f 7/8/2 24/7/2 23/51/2 8/52/2
f 24/7/2 4/53/2 8/52/2 23/51/2
s 1
f 14/54/6 10/55/6 17/56/6 18/57/6 4/58/6 8/59/6
f 19/60/1 18/61/1 17/62/1 20/63/1
f 20/64/5 9/65/5 13/66/5 7/67/5 3/68/5 19/69/5
f 13/70/3 14/71/3 8/72/3 7/73/3
f 20/74/2 17/75/2 10/76/2 21/77/2 9/78/2
f 9/78/2 21/77/2 14/79/2 13/80/2
f 14/79/2 21/77/2 10/76/2
f 3/81/4 24/82/4 4/83/4 18/84/4 19/85/4
f 4/83/4 24/82/4 7/86/4 8/87/4
