# Blender v2.79 (sub 0) OBJ File: 'HP DL580 Gen10.blend'
# www.blender.org
mtllib HP DL580 Gen10.mtl
o unit_Cube.001
v 0.360000 -0.090000 0.265000
v 0.360000 0.090000 0.265000
v 0.360000 -0.090000 0.240000
v 0.360000 0.090000 0.240000
v 0.400000 -0.090000 0.265000
v 0.400000 0.090000 0.265000
v 0.400000 -0.090000 0.240000
v 0.400000 0.090000 0.240000
v 0.360000 -0.090000 -0.240000
v 0.360000 0.090000 -0.240000
v 0.360000 -0.090000 -0.265000
v 0.360000 0.090000 -0.265000
v 0.400000 -0.090000 -0.240000
v 0.400000 0.090000 -0.240000
v 0.400000 -0.090000 -0.265000
v 0.400000 0.090000 -0.265000
v -0.400000 0.090000 -0.240000
v -0.400000 0.090000 0.240000
v -0.400000 -0.090000 0.240000
v -0.400000 -0.090000 -0.240000
v 0.360000 -0.081000 -0.240000
v 0.361905 -0.081428 -0.240000
v 0.361905 0.081428 0.240000
v 0.360000 0.081000 0.240000
vt 0.824830 0.009418
vt 0.824830 0.093695
vt 0.775988 0.093695
vt 0.775988 0.089482
vt 0.775988 0.009418
vt 0.813820 0.142510
vt 0.813820 0.137009
vt 0.819190 0.142510
vt 0.775962 0.069247
vt 0.981710 0.071428
vt 0.981775 0.091719
vt 0.775973 0.088529
vt 0.854788 0.086968
vt 0.854788 0.014871
vt 0.921641 0.014871
vt 0.921641 0.086968
vt 0.921495 0.007836
vt 0.921495 0.093098
vt 0.865906 0.093098
vt 0.865906 0.007836
vt 0.817629 0.010701
vt 0.817629 0.087315
vt 0.781236 0.087315
vt 0.781236 0.010701
vt 0.828915 0.091218
vt 0.828915 0.087190
vt 0.828915 0.010646
vt 0.875610 0.010646
vt 0.875610 0.091218
vt 0.921294 0.077462
vt 0.921294 0.008080
vt 0.985628 0.008080
vt 0.985628 0.077462
vt 0.987103 0.780200
vt 0.995772 0.987967
vt 0.943216 0.988284
vt 0.936087 0.780187
vt 0.800397 0.142510
vt 0.805511 0.142234
vt 0.805766 0.142220
vt 0.805766 0.142510
vt 0.977382 0.018476
vt 0.977382 0.090580
vt 0.930372 0.090580
vt 0.930372 0.018476
vt 0.976649 0.011976
vt 0.976649 0.090345
vt 0.925554 0.090345
vt 0.925554 0.011976
vt 0.800397 0.136719
vt 0.814076 0.136995
vt 0.819190 0.136719
vt 0.813820 0.136719
vt 0.384892 0.020690
vt 0.384892 0.048276
vt 0.384892 0.504753
vt 0.014960 0.504753
vt 0.014961 0.048276
vt 0.014961 0.020690
vt 0.980794 0.525963
vt 0.979420 0.763637
vt 0.019545 0.765964
vt 0.020267 0.526849
vt 0.752754 0.020690
vt 0.752755 0.476209
vt 0.752755 0.503795
vt 0.407431 0.503795
vt 0.407431 0.476209
vt 0.407431 0.020690
vt 0.935717 0.779369
vt 0.943663 0.988779
vt 0.058440 0.987973
vt 0.064145 0.780258
vt 0.880731 0.504753
vt 0.762229 0.504753
vt 0.762229 0.191831
vt 0.879112 0.191831
vt 0.880731 0.191831
vt 0.762229 0.164244
vt 0.880731 0.164244
vt 0.990721 0.504932
vt 0.892294 0.504932
vt 0.890676 0.504932
vt 0.890675 0.164244
vt 0.990721 0.164244
vt 0.635090 0.458975
vt 0.636709 0.458975
vt 0.735136 0.486562
vt 0.635090 0.486562
vn -1.0000 0.0000 0.0000
vn 0.0000 0.0000 -1.0000
vn 1.0000 0.0000 0.0000
vn 0.0000 0.0000 1.0000
vn 0.0000 -1.0000 0.0000
vn 0.0000 1.0000 -0.0000
usemtl Material
s off
f 1/1/1 2/2/1 4/3/1 24/4/1 3/5/1
f 3/6/2 24/7/2 7/8/2
f 7/9/3 8/10/3 6/11/3 5/12/3
f 5/13/4 6/14/4 2/15/4 1/16/4
f 3/17/5 7/18/5 5/19/5 1/20/5
f 8/21/6 4/22/6 2/23/6 6/24/6
f 9/25/1 21/26/1 10/27/1 12/28/1 11/29/1
f 11/30/2 12/31/2 16/32/2 15/33/2
f 15/34/3 16/35/3 14/36/3 13/37/3
f 13/38/4 22/39/4 21/40/4 9/41/4
f 11/42/5 15/43/5 13/44/5 9/45/5
f 16/46/6 12/47/6 10/48/6 14/49/6
f 14/50/4 21/40/4 22/39/4 13/38/4
f 7/8/2 24/7/2 23/51/2 8/52/2
f 24/7/2 4/53/2 8/52/2 23/51/2
s 1
f 14/54/6 10/55/6 17/56/6 18/57/6 4/58/6 8/59/6
f 19/60/1 18/61/1 17/62/1 20/63/1
f 20/64/5 9/65/5 13/66/5 7/67/5 3/68/5 19/69/5
f 13/70/3 14/71/3 8/72/3 7/73/3
f 20/74/2 17/75/2 10/76/2 21/77/2 9/78/2
f 9/78/2 21/77/2 14/79/2 13/80/2
f 14/79/2 21/77/2 10/76/2
f 3/81/4 24/82/4 4/83/4 18/84/4 19/85/4
f 4/86/4 24/87/4 7/88/4 8/89/4
