# Blender v2.79 (sub 0) OBJ File: 'x3550.blend'
# www.blender.org
mtllib x3550.mtl
o unit_Cube.001
v 0.360000 -0.022500 0.265000
v 0.360000 0.022500 0.265000
v 0.360000 -0.022500 0.240000
v 0.360000 0.022500 0.240000
v 0.400000 -0.022500 0.265000
v 0.400000 0.022500 0.265000
v 0.400000 -0.022500 0.240000
v 0.400000 0.022500 0.240000
v 0.360000 -0.022500 -0.240000
v 0.360000 0.022500 -0.240000
v 0.360000 -0.022500 -0.265000
v 0.360000 0.022500 -0.265000
v 0.400000 -0.022500 -0.240000
v 0.400000 0.022500 -0.240000
v 0.400000 -0.022500 -0.265000
v 0.400000 0.022500 -0.265000
v -0.400000 0.022500 -0.240000
v -0.400000 0.022500 0.240000
v -0.400000 -0.022500 0.240000
v -0.400000 -0.022500 -0.240000
v 0.360000 -0.020250 -0.240000
v 0.361905 -0.020357 -0.240000
v 0.361905 0.020357 0.240000
v 0.360000 0.020250 0.240000
v 0.400000 0.000000 -0.265000
v 0.400000 0.000000 -0.240000
vt 0.946637 0.153061
vt 0.910742 0.151362
vt 0.911726 0.130559
vt 0.925346 0.130718
vt 0.947622 0.132258
vt 0.863910 0.148758
vt 0.863910 0.131385
vt 0.880867 0.148758
vt 0.868828 0.080043
vt 0.946288 0.080043
vt 0.946288 0.121295
vt 0.868828 0.121296
vt 0.779124 0.148758
vt 0.779124 0.130471
vt 0.796081 0.130471
vt 0.796081 0.148758
vt 0.858705 0.062036
vt 0.858705 0.115186
vt 0.824052 0.115186
vt 0.824052 0.062036
vt 0.807939 0.019806
vt 0.807939 0.071134
vt 0.774474 0.071134
vt 0.774474 0.019806
vt 0.894985 0.148758
vt 0.894985 0.147844
vt 0.894985 0.130471
vt 0.905584 0.130471
vt 0.905584 0.148758
vt 0.822351 0.054496
vt 0.822351 0.014981
vt 0.858991 0.014981
vt 0.858991 0.034739
vt 0.858991 0.054496
vt 0.924680 0.756862
vt 0.931003 0.809202
vt 0.873441 0.820366
vt 0.871117 0.769564
vt 0.821517 0.148758
vt 0.837667 0.147887
vt 0.838474 0.147844
vt 0.838474 0.148758
vt 0.990686 0.015137
vt 0.974390 0.065126
vt 0.958094 0.065126
vt 0.958094 0.015137
vt 0.989678 0.075897
vt 0.989678 0.126493
vt 0.956691 0.126493
vt 0.956691 0.075897
vt 0.821517 0.130471
vt 0.821517 0.139614
vt 0.864718 0.131342
vt 0.880867 0.130471
vt 0.863910 0.130471
vt 0.908298 0.022974
vt 0.908526 0.067776
vt 0.884665 0.067897
vt 0.884438 0.023095
vt 0.375126 0.005065
vt 0.375126 0.032651
vt 0.375126 0.587206
vt 0.005195 0.587206
vt 0.005195 0.032651
vt 0.005195 0.005065
vt 0.985543 0.843556
vt 0.985275 0.938675
vt 0.011732 0.939249
vt 0.012615 0.842737
vt 0.742989 0.005065
vt 0.742989 0.559619
vt 0.742989 0.587206
vt 0.397665 0.587206
vt 0.397665 0.559619
vt 0.397665 0.005065
vt 0.950272 0.644756
vt 0.950189 0.681833
vt 0.950107 0.718911
vt 0.050010 0.732478
vt 0.050336 0.647841
vt 0.880731 0.590870
vt 0.762229 0.590870
vt 0.762229 0.191831
vt 0.879112 0.191831
vt 0.880731 0.191831
vt 0.762229 0.164244
vt 0.821480 0.164244
vt 0.880731 0.164244
vt 0.990721 0.563283
vt 0.892294 0.563283
vt 0.890676 0.563283
vt 0.890675 0.164244
vt 0.990721 0.164244
vt 0.990721 0.590870
vt 0.890676 0.590870
vn -1.0000 0.0000 0.0000
vn 0.0000 -0.0000 -1.0000
vn 1.0000 -0.0000 0.0000
vn 0.0000 0.0000 1.0000
vn 0.0000 -1.0000 0.0000
vn 0.0000 1.0000 0.0000
usemtl Material
s off
f 1/1/1 2/2/1 4/3/1 24/4/1 3/5/1
f 3/6/2 24/7/2 7/8/2
f 7/9/3 8/10/3 6/11/3 5/12/3
f 5/13/4 6/14/4 2/15/4 1/16/4
f 3/17/5 7/18/5 5/19/5 1/20/5
f 8/21/6 4/22/6 2/23/6 6/24/6
f 9/25/1 21/26/1 10/27/1 12/28/1 11/29/1
f 11/30/2 12/31/2 16/32/2 25/33/2 15/34/2
f 25/35/3 16/36/3 14/37/3 26/38/3
f 13/39/4 22/40/4 21/41/4 9/42/4
f 11/43/5 15/44/5 13/45/5 9/46/5
f 16/47/6 12/48/6 10/49/6 14/50/6
f 14/51/4 21/41/4 22/40/4 13/39/4 26/52/4
f 7/8/2 24/7/2 23/53/2 8/54/2
f 24/7/2 4/55/2 8/54/2 23/53/2
f 15/56/3 25/57/3 26/58/3 13/59/3
s 1
f 14/60/6 10/61/6 17/62/6 18/63/6 4/64/6 8/65/6
f 19/66/1 18/67/1 17/68/1 20/69/1
f 20/70/5 9/71/5 13/72/5 7/73/5 3/74/5 19/75/5
f 13/76/3 26/77/3 14/78/3 8/79/3 7/80/3
f 20/81/2 17/82/2 10/83/2 21/84/2 9/85/2
f 9/85/2 21/84/2 14/86/2 26/87/2 13/88/2
f 14/86/2 21/84/2 10/83/2
f 3/89/4 24/90/4 4/91/4 18/92/4 19/93/4
f 4/91/4 24/90/4 7/94/4 8/95/4
