# Blender v2.79 (sub 0) OBJ File: 'FlashSSRtem9100.blend'
# www.blender.org
mtllib FlashSSRtem9100.mtl
o unit_Cube.001
v 0.180000 -0.045000 0.265000
v 0.180000 0.045000 0.265000
v 0.180000 -0.045000 0.240000
v 0.180000 0.045000 0.240000
v 0.200000 -0.045000 0.265000
v 0.200000 0.045000 0.265000
v 0.200000 -0.045000 0.240000
v 0.200000 0.045000 0.240000
v 0.180000 -0.045000 -0.240000
v 0.180000 0.045000 -0.240000
v 0.180000 -0.045000 -0.265000
v 0.180000 0.045000 -0.265000
v 0.200000 -0.045000 -0.240000
v 0.200000 0.045000 -0.240000
v 0.200000 -0.045000 -0.265000
v 0.200000 0.045000 -0.265000
v -0.200000 0.045000 -0.240000
v -0.200000 0.045000 0.240000
v -0.200000 -0.045000 0.240000
v -0.200000 -0.045000 -0.240000
v 0.180000 -0.040500 -0.240000
v 0.180952 -0.040714 -0.240000
v 0.180952 0.040714 0.240000
v 0.180000 0.040500 0.240000
vt 0.800781 0.072266
vt 0.800781 0.072266
vt 0.800781 0.072266
vt 0.800781 0.072266
vt 0.800781 0.072266
vt 0.800781 0.072266
vt 0.050830 0.607325
vt 0.051030 0.776778
vt 0.006907 0.776838
vt 0.006772 0.607422
vt 0.800781 0.072266
vt 0.800781 0.072266
vt 0.800781 0.072266
vt 0.829284 0.115657
vt 0.829284 0.115657
vt 0.829284 0.115657
vt 0.829284 0.115657
vt 0.829284 0.115657
vt 0.800781 0.072266
vt 0.800781 0.072266
vt 0.800781 0.072266
vt 0.800781 0.072266
vt 0.992293 0.608962
vt 0.993938 0.776223
vt 0.950627 0.776320
vt 0.951253 0.609129
vt 0.800781 0.072266
vt 0.800781 0.072266
vt 0.800781 0.072266
vt 0.800781 0.072266
vt 0.922794 0.091049
vt 0.922794 0.091049
vt 0.922794 0.091049
vt 0.922794 0.091049
vt 0.861328 0.101562
vt 0.861328 0.101562
vt 0.861328 0.101562
vt 0.861328 0.101562
vt 0.800781 0.072266
vt 0.800781 0.072266
vt 0.627707 0.014460
vt 0.627768 0.028645
vt 0.628914 0.298169
vt 0.017879 0.299953
vt 0.016732 0.030430
vt 0.016671 0.016245
vt 0.972293 0.799489
vt 0.972653 0.976369
vt 0.029826 0.975288
vt 0.029307 0.799413
vt 0.628598 0.597574
vt 0.052011 0.596977
vt 0.014973 0.596946
vt 0.015265 0.311919
vt 0.052302 0.311950
vt 0.628890 0.312547
vt 0.950586 0.609138
vt 0.950321 0.776953
vt 0.050741 0.776973
vt 0.050770 0.606952
vt 0.985044 0.591147
vt 0.821779 0.591147
vt 0.821779 0.166363
vt 0.906192 0.166363
vt 0.985044 0.166363
vt 0.964844 0.125014
vt 0.960401 0.125014
vt 0.875988 0.094498
vt 0.964844 0.094498
vt 0.875988 0.125014
vt 0.647715 0.164186
vt 0.804531 0.164186
vt 0.808298 0.164186
vt 0.808297 0.592426
vt 0.647715 0.592426
vt 0.862507 0.125937
vt 0.858741 0.125937
vt 0.787185 0.095728
vt 0.862507 0.095728
vn -1.0000 0.0000 0.0000
vn 0.0000 -0.0000 -1.0000
vn 1.0000 -0.0000 0.0000
vn 0.0000 0.0000 1.0000
vn 0.0000 -1.0000 0.0000
vn 0.0000 1.0000 0.0000
usemtl Material
s off
f 1/1/1 2/2/1 4/3/1 24/4/1 3/5/1
f 3/5/2 24/4/2 7/6/2
f 7/7/3 8/8/3 6/9/3 5/10/3
f 5/11/4 6/12/4 2/2/4 1/1/4
f 3/5/5 7/6/5 5/11/5 1/1/5
f 8/13/6 4/3/6 2/2/6 6/12/6
f 9/14/1 21/15/1 10/16/1 12/17/1 11/18/1
f 11/19/2 12/20/2 16/21/2 15/22/2
f 15/23/3 16/24/3 14/25/3 13/26/3
f 13/27/4 22/28/4 21/29/4 9/30/4
f 11/31/5 15/32/5 13/33/5 9/34/5
f 16/35/6 12/36/6 10/37/6 14/38/6
f 14/39/4 21/29/4 22/28/4 13/27/4
f 7/6/2 24/4/2 23/40/2 8/13/2
f 24/4/2 4/3/2 8/13/2 23/40/2
s 1
f 14/41/6 10/42/6 17/43/6 18/44/6 4/45/6 8/46/6
f 19/47/1 18/48/1 17/49/1 20/50/1
f 20/51/5 9/52/5 13/53/5 7/54/5 3/55/5 19/56/5
f 13/57/3 14/58/3 8/59/3 7/60/3
f 20/61/2 17/62/2 10/63/2 21/64/2 9/65/2
f 9/66/2 21/67/2 14/68/2 13/69/2
f 14/68/2 21/67/2 10/70/2
f 3/71/4 24/72/4 4/73/4 18/74/4 19/75/4
f 4/76/4 24/77/4 7/78/4 8/79/4
